<?xml version="1.0" encoding="utf-8" standalone="no"?>
<!DOCTYPE svg PUBLIC "-//W3C//DTD SVG 1.1//EN"
  "http://www.w3.org/Graphics/SVG/1.1/DTD/svg11.dtd">
<!-- Created with matplotlib (https://matplotlib.org/) -->
<svg height="216pt" version="1.1" viewBox="0 0 324 216" width="324pt" xmlns="http://www.w3.org/2000/svg" xmlns:xlink="http://www.w3.org/1999/xlink">
 <metadata>
  <rdf:RDF xmlns:cc="http://creativecommons.org/ns#" xmlns:dc="http://purl.org/dc/elements/1.1/" xmlns:rdf="http://www.w3.org/1999/02/22-rdf-syntax-ns#">
   <cc:Work>
    <dc:type rdf:resource="http://purl.org/dc/dcmitype/StillImage"/>
    <dc:date>2021-07-22T01:01:02.633212</dc:date>
    <dc:format>image/svg+xml</dc:format>
    <dc:creator>
     <cc:Agent>
      <dc:title>Matplotlib v3.3.3, https://matplotlib.org/</dc:title>
     </cc:Agent>
    </dc:creator>
   </cc:Work>
  </rdf:RDF>
 </metadata>
 <defs>
  <style type="text/css">*{stroke-linecap:butt;stroke-linejoin:round;}</style>
 </defs>
 <g id="figure_1">
  <g id="patch_1">
   <path d="M 0 216 
L 324 216 
L 324 0 
L 0 0 
z
" style="fill:none;"/>
  </g>
  <g id="axes_1">
   <g id="patch_2">
    <path d="M 39.833789 181.9336 
L 323.2 181.9336 
L 323.2 15.766376 
L 39.833789 15.766376 
z
" style="fill:none;"/>
   </g>
   <g id="matplotlib.axis_1">
    <g id="xtick_1">
     <g id="line2d_1">
      <defs>
       <path d="M 0 0 
L 0 3.5 
" id="mabf4cc1708" style="stroke:#ffffff;stroke-width:0.8;"/>
      </defs>
      <g>
       <use style="fill:#ffffff;stroke:#ffffff;stroke-width:0.8;" x="39.833789" xlink:href="#mabf4cc1708" y="181.9336"/>
      </g>
     </g>
     <g id="text_1">
      <!-- $\mathdefault{0}$ -->
      <g style="fill:#ffffff;" transform="translate(37.343122 195.852098)scale(0.1 -0.1)">
       <defs>
        <path d="M 43.09375 32.390625 
C 43.09375 38.109375 43 48.75 38.90625 56.984375 
C 34.796875 64.890625 28.203125 67 23.5 67 
C 16.703125 67 10.90625 62.984375 7.90625 56.578125 
C 4.703125 49.859375 3.796875 42.9375 3.796875 32.390625 
C 3.796875 25.171875 4.09375 16.34375 7.703125 8.609375 
C 11.796875 0.09375 18.703125 -2 23.40625 -2 
C 29.59375 -2 35.59375 1.296875 39 8.203125 
C 42.5 15.4375 43.09375 23.359375 43.09375 32.390625 
z
M 23.40625 4.09375 
C 15.796875 4.09375 13.5 12.828125 12.796875 15.734375 
C 11.59375 20.75 11.40625 25.5625 11.40625 33.5 
C 11.40625 39.71875 11.40625 46.75 13.296875 52.265625 
C 15.59375 58.6875 19.59375 60.890625 23.40625 60.890625 
C 30.796875 60.890625 33.203125 53.46875 34 50.859375 
C 35.5 45.546875 35.5 39.3125 35.5 33.5 
C 35.5 24.15625 35.5 4.09375 23.40625 4.09375 
z
" id="CMSS17-48"/>
       </defs>
       <use transform="scale(0.996264)" xlink:href="#CMSS17-48"/>
      </g>
     </g>
    </g>
    <g id="xtick_2">
     <g id="line2d_2">
      <g>
       <use style="fill:#ffffff;stroke:#ffffff;stroke-width:0.8;" x="79.275365" xlink:href="#mabf4cc1708" y="181.9336"/>
      </g>
     </g>
     <g id="text_2">
      <!-- $\mathdefault{1}$ -->
      <g style="fill:#ffffff;" transform="translate(76.784697 195.852098)scale(0.1 -0.1)">
       <defs>
        <path d="M 28.40625 67 
L 26.5 67 
C 21.09375 61.703125 14.796875 60.96875 8.40625 60.796875 
L 8.40625 55 
C 11.296875 55.09375 16 55.296875 20.703125 57.390625 
L 20.703125 5.796875 
L 8.90625 5.796875 
L 8.90625 0 
L 40.203125 0 
L 40.203125 5.796875 
L 28.40625 5.796875 
z
" id="CMSS17-49"/>
       </defs>
       <use transform="scale(0.996264)" xlink:href="#CMSS17-49"/>
      </g>
     </g>
    </g>
    <g id="xtick_3">
     <g id="line2d_3">
      <g>
       <use style="fill:#ffffff;stroke:#ffffff;stroke-width:0.8;" x="118.71694" xlink:href="#mabf4cc1708" y="181.9336"/>
      </g>
     </g>
     <g id="text_3">
      <!-- $\mathdefault{2}$ -->
      <g style="fill:#ffffff;" transform="translate(116.226272 195.852098)scale(0.1 -0.1)">
       <defs>
        <path d="M 25.796875 21.140625 
C 28.59375 24.03125 32.796875 27.515625 35.703125 31 
C 38.5 34.390625 42.203125 39.171875 42.203125 46.140625 
C 42.203125 57.109375 34.796875 67 22.203125 67 
C 12.296875 67 6.59375 60.796875 3.90625 51.125 
L 7.796875 45.75 
C 10 54.8125 13.09375 60.59375 20.90625 60.59375 
C 29.5 60.59375 34.296875 53.609375 34.296875 45.9375 
C 34.296875 36.78125 27.296875 29.703125 22 24.421875 
C 16.09375 18.546875 10.296875 12.578125 4.703125 6.390625 
L 4.703125 0 
L 42.203125 0 
L 42.203125 6.796875 
L 25.203125 6.796875 
C 24 6.796875 22.796875 6.6875 21.59375 6.6875 
L 11.59375 6.6875 
L 11.59375 6.796875 
z
" id="CMSS17-50"/>
       </defs>
       <use transform="scale(0.996264)" xlink:href="#CMSS17-50"/>
      </g>
     </g>
    </g>
    <g id="xtick_4">
     <g id="line2d_4">
      <g>
       <use style="fill:#ffffff;stroke:#ffffff;stroke-width:0.8;" x="158.158515" xlink:href="#mabf4cc1708" y="181.9336"/>
      </g>
     </g>
     <g id="text_4">
      <!-- $\mathdefault{3}$ -->
      <g style="fill:#ffffff;" transform="translate(155.667848 195.852098)scale(0.1 -0.1)">
       <defs>
        <path d="M 15.703125 32.1875 
L 22.5 32.1875 
C 31.90625 32.1875 34.59375 23.9375 34.59375 18.1875 
C 34.59375 10.34375 30.203125 4.1875 23 4.1875 
C 17.40625 4.1875 9.5 7.015625 5 14.46875 
C 4.296875 10.9375 4.296875 10.734375 3.90625 8.328125 
C 8.59375 1.390625 16.203125 -2 23.203125 -2 
C 34.59375 -2 43 7.515625 43 18.09375 
C 43 26.046875 37.5 32.6875 30 35.1875 
C 36 38.484375 40.40625 44.6875 40.40625 51.890625 
C 40.40625 60.296875 32.703125 67 23.296875 67 
C 14.703125 67 8 61.6875 5.203125 55.984375 
C 5.90625 54.984375 7.703125 52.09375 8.59375 50.59375 
C 10.796875 56.484375 16.5 60.890625 23.203125 60.890625 
C 28.796875 60.890625 32.5 57.1875 32.5 51.890625 
C 32.5 46.390625 29 40.390625 23.09375 39 
C 22.703125 39 16.5 38.390625 15.703125 38.296875 
z
" id="CMSS17-51"/>
       </defs>
       <use transform="scale(0.996264)" xlink:href="#CMSS17-51"/>
      </g>
     </g>
    </g>
    <g id="xtick_5">
     <g id="line2d_5">
      <g>
       <use style="fill:#ffffff;stroke:#ffffff;stroke-width:0.8;" x="197.600091" xlink:href="#mabf4cc1708" y="181.9336"/>
      </g>
     </g>
     <g id="text_5">
      <!-- $\mathdefault{4}$ -->
      <g style="fill:#ffffff;" transform="translate(195.109423 195.852098)scale(0.1 -0.1)">
       <defs>
        <path d="M 35.203125 17 
L 44.296875 17 
L 44.296875 23.09375 
L 35.203125 23.09375 
L 35.203125 66 
L 26.40625 66 
L 2.59375 23.09375 
L 2.59375 17 
L 27.296875 17 
L 27.296875 0 
L 35.203125 0 
z
M 10.296875 23.09375 
C 16.09375 33.421875 27.59375 54.28125 27.59375 61.359375 
L 27.59375 23.09375 
z
" id="CMSS17-52"/>
       </defs>
       <use transform="scale(0.996264)" xlink:href="#CMSS17-52"/>
      </g>
     </g>
    </g>
    <g id="xtick_6">
     <g id="line2d_6">
      <g>
       <use style="fill:#ffffff;stroke:#ffffff;stroke-width:0.8;" x="237.041666" xlink:href="#mabf4cc1708" y="181.9336"/>
      </g>
     </g>
     <g id="text_6">
      <!-- $\mathdefault{5}$ -->
      <g style="fill:#ffffff;" transform="translate(234.550998 195.852098)scale(0.1 -0.1)">
       <defs>
        <path d="M 14.59375 59.59375 
L 39.09375 59.59375 
L 39.09375 66 
L 7.296875 66 
L 7.296875 28.59375 
L 14 28.59375 
C 15.796875 32.859375 19.5 36 24.296875 36 
C 28.796875 36 33.796875 31.9375 33.796875 20.296875 
C 33.796875 7.84375 26.703125 4.1875 21.5 4.1875 
C 15.09375 4.1875 9.203125 8.140625 6.59375 13.609375 
L 3.40625 7.9375 
C 8 0.796875 15.5 -2 21.5 -2 
C 33.09375 -2 42.203125 7.9375 42.203125 20.09375 
C 42.203125 32.546875 34.09375 42.09375 24.40625 42.09375 
C 20.90625 42.09375 17.5 40.890625 14.59375 38.5 
z
" id="CMSS17-53"/>
       </defs>
       <use transform="scale(0.996264)" xlink:href="#CMSS17-53"/>
      </g>
     </g>
    </g>
    <g id="xtick_7">
     <g id="line2d_7">
      <g>
       <use style="fill:#ffffff;stroke:#ffffff;stroke-width:0.8;" x="276.483241" xlink:href="#mabf4cc1708" y="181.9336"/>
      </g>
     </g>
     <g id="text_7">
      <!-- $\mathdefault{6}$ -->
      <g style="fill:#ffffff;" transform="translate(273.992573 195.852098)scale(0.1 -0.1)">
       <defs>
        <path d="M 39 64.984375 
C 34.796875 66.6875 31.796875 67 29 67 
C 16 67 3.90625 53.25 3.90625 31.609375 
C 3.90625 4.1875 15.40625 -2 23.59375 -2 
C 28.09375 -2 32.59375 -0.609375 36.90625 4.390625 
C 41.296875 9.671875 43 14.0625 43 21.75 
C 43 34.109375 36.90625 45.09375 27.796875 45.09375 
C 21.203125 45.09375 15.5 41.59375 12 37.203125 
C 13 51.40625 19.59375 60.890625 29.09375 60.890625 
C 31.703125 60.890625 35.09375 60.484375 39 58.75 
z
M 12.09375 21.4375 
C 12.09375 22.234375 12.09375 22.734375 12.203125 24.234375 
C 12.203125 32.015625 16.703125 39 24 39 
C 28.703125 39 31.09375 36.5 32.90625 33.40625 
C 35 29.515625 35.09375 25.828125 35.09375 21.75 
C 35.09375 17.859375 35.09375 13.96875 32.796875 9.96875 
C 30.90625 6.890625 28.40625 4.1875 23.59375 4.1875 
C 14.09375 4.1875 12.5 17.453125 12.09375 21.4375 
z
" id="CMSS17-54"/>
       </defs>
       <use transform="scale(0.996264)" xlink:href="#CMSS17-54"/>
      </g>
     </g>
    </g>
    <g id="xtick_8">
     <g id="line2d_8">
      <g>
       <use style="fill:#ffffff;stroke:#ffffff;stroke-width:0.8;" x="315.924816" xlink:href="#mabf4cc1708" y="181.9336"/>
      </g>
     </g>
     <g id="text_8">
      <!-- $\mathdefault{7}$ -->
      <g style="fill:#ffffff;" transform="translate(313.434149 195.852098)scale(0.1 -0.1)">
       <defs>
        <path d="M 21.703125 59.1875 
C 22.90625 59.1875 24.09375 59.296875 25.296875 59.296875 
L 36.796875 59.296875 
C 22.5 42.421875 14.296875 21.09375 14.296875 -1 
L 22.296875 -1 
C 22.296875 20.390625 29.296875 42.109375 43 59.484375 
L 43 66 
L 3.90625 66 
L 3.90625 59.1875 
z
" id="CMSS17-55"/>
       </defs>
       <use transform="scale(0.996264)" xlink:href="#CMSS17-55"/>
      </g>
     </g>
    </g>
    <g id="text_9">
     <!-- $Lm_{\mathrm{PCAC}}^{1/y_m}$ -->
     <g style="fill:#ffffff;" transform="translate(165.393177 212.194684)scale(0.1 -0.1)">
      <defs>
       <path d="M 32 69 
L 23.59375 69 
L 8.796875 0 
L 46.90625 0 
L 48.296875 6.5 
L 27.5 6.5 
C 26.296875 6.5 25.09375 6.390625 23.90625 6.390625 
L 18.59375 6.390625 
z
" id="CMSSI17-76"/>
       <path d="M 73.296875 29.546875 
C 73.5 30.34375 73.796875 32.765625 73.796875 34.578125 
C 73.796875 37.1875 73.796875 44 63.40625 44 
C 55.59375 44 50.40625 39.09375 47.796875 36.484375 
C 47 41.890625 43.203125 44 37.40625 44 
C 29.90625 44 24.40625 39.1875 22.59375 37.28125 
L 23.90625 43.484375 
L 16.59375 43.484375 
L 7.40625 0 
L 15 0 
L 19.59375 21.703125 
C 20.5 26.125 23.09375 37.890625 32.296875 37.890625 
C 36.90625 37.890625 39.90625 36.28125 39.90625 31.859375 
C 39.90625 30.453125 39.796875 30.046875 39.703125 29.546875 
L 33.40625 0 
L 41 0 
L 45.59375 21.703125 
C 46.5 26.125 49.09375 37.890625 58.296875 37.890625 
C 62.90625 37.890625 65.90625 36.28125 65.90625 31.859375 
C 65.90625 30.453125 65.796875 30.046875 65.703125 29.546875 
L 59.40625 0 
L 67 0 
z
" id="CMSSI17-109"/>
       <path d="M 42.90625 71.296875 
C 42.90625 71.390625 43.5 72.890625 43.5 73.09375 
C 43.5 74.296875 42.5 75 41.703125 75 
C 41.203125 75 40.296875 75 39.5 72.796875 
L 6 -21.3125 
C 6 -21.40625 5.40625 -22.90625 5.40625 -23.109375 
C 5.40625 -24.3125 6.40625 -25 7.203125 -25 
C 7.796875 -25 8.703125 -24.90625 9.40625 -22.8125 
z
" id="CMMI12-61"/>
       <path d="M 50.90625 43 
L 43.09375 43 
C 40.90625 39.0625 31.40625 22.265625 31.203125 21.75 
C 27.796875 15.46875 24.59375 9.09375 23.5 5.140625 
C 23.5 5.140625 23.703125 7.375 23.703125 8.484375 
C 23.703125 16.390625 20.796875 31.171875 18.5 43 
L 10.5 43 
L 19 -0.53125 
C 17.40625 -3.359375 15.90625 -6.09375 14.203125 -8.828125 
C 10.703125 -14.8125 9.09375 -14.8125 7.59375 -14.8125 
C 7 -14.8125 3.5 -14.703125 0.59375 -13.59375 
L -0.296875 -20.203125 
C 1.796875 -20.703125 4.296875 -21 6.40625 -21 
C 8.703125 -21 13.90625 -21 20.703125 -9.34375 
z
" id="CMSSI17-121"/>
       <path d="M 32.90625 29 
C 44.90625 29 54.703125 38.234375 54.703125 49.046875 
C 54.703125 59.65625 45.296875 69 32.296875 69 
L 8.90625 69 
L 8.90625 0 
L 17.296875 0 
L 17.296875 29 
z
M 30.09375 63.390625 
C 41.703125 63.390625 46.796875 56.21875 46.796875 49.046875 
C 46.796875 42.359375 42.09375 34.796875 30.09375 34.796875 
L 17.09375 34.796875 
L 17.09375 63.390625 
z
" id="CMSS17-80"/>
       <path d="M 54.703125 11.015625 
C 48 6.5 44.90625 5.1875 36.796875 5.1875 
C 22.796875 5.1875 14.59375 20.375 14.59375 34.234375 
C 14.59375 49.015625 23 63.59375 37.203125 63.59375 
C 43.59375 63.59375 47.796875 61.78125 52.90625 58.5625 
L 54.296875 66.484375 
C 49.5 68.890625 43.40625 70 37.296875 70 
C 18.09375 70 6.203125 52.234375 6.203125 34.234375 
C 6.203125 14.4375 20.296875 -1.203125 36.296875 -1.203125 
C 44.90625 -1.203125 47.90625 -0.5 55.296875 4.1875 
z
" id="CMSS17-67"/>
       <path d="M 35.5 69 
L 26.90625 69 
L 2.59375 0 
L 10.203125 0 
L 17.203125 20 
L 44 20 
L 51.09375 0 
L 59.796875 0 
z
M 42.09375 25.59375 
L 19.09375 25.59375 
C 23.90625 39.53125 29.90625 56.84375 30.59375 61.3125 
L 30.703125 61.3125 
C 31.40625 57.234375 33.40625 51.265625 35.09375 46.1875 
z
" id="CMSS17-65"/>
      </defs>
      <use transform="scale(0.996264)" xlink:href="#CMSSI17-76"/>
      <use transform="translate(50.687121 0)scale(0.996264)" xlink:href="#CMSSI17-109"/>
      <use transform="translate(127.064858 51.750272)scale(0.697382)" xlink:href="#CMSS17-49"/>
      <use transform="translate(159.85524 51.750272)scale(0.697382)" xlink:href="#CMMI12-61"/>
      <use transform="translate(193.997531 51.750272)scale(0.697382)" xlink:href="#CMSSI17-121"/>
      <use transform="translate(224.097501 41.289576)scale(0.498132)" xlink:href="#CMSSI17-109"/>
      <use transform="translate(124.916375 -30.053361)scale(0.697382)" xlink:href="#CMSS17-80"/>
      <use transform="translate(166.731097 -30.053361)scale(0.697382)" xlink:href="#CMSS17-67"/>
      <use transform="translate(208.629961 -30.053361)scale(0.697382)" xlink:href="#CMSS17-65"/>
      <use transform="translate(250.360541 -30.053361)scale(0.697382)" xlink:href="#CMSS17-67"/>
     </g>
    </g>
   </g>
   <g id="matplotlib.axis_2">
    <g id="ytick_1">
     <g id="line2d_9">
      <defs>
       <path d="M 0 0 
L -3.5 0 
" id="mda48119307" style="stroke:#ffffff;stroke-width:0.8;"/>
      </defs>
      <g>
       <use style="fill:#ffffff;stroke:#ffffff;stroke-width:0.8;" x="39.833789" xlink:href="#mda48119307" y="181.9336"/>
      </g>
     </g>
     <g id="text_10">
      <!-- $\mathdefault{0.0}$ -->
      <g style="fill:#ffffff;" transform="translate(20.10371 185.392849)scale(0.1 -0.1)">
       <defs>
        <path d="M 17 8 
L 9 8 
L 9 0 
L 17 0 
z
" id="CMSS17-46"/>
       </defs>
       <use transform="scale(0.996264)" xlink:href="#CMSS17-48"/>
       <use transform="translate(46.843624 0)scale(0.996264)" xlink:href="#CMSS17-46"/>
       <use transform="translate(72.867828 0)scale(0.996264)" xlink:href="#CMSS17-48"/>
      </g>
     </g>
    </g>
    <g id="ytick_2">
     <g id="line2d_10">
      <g>
       <use style="fill:#ffffff;stroke:#ffffff;stroke-width:0.8;" x="39.833789" xlink:href="#mda48119307" y="159.362328"/>
      </g>
     </g>
     <g id="text_11">
      <!-- $\mathdefault{2.5}$ -->
      <g style="fill:#ffffff;" transform="translate(20.10371 162.821578)scale(0.1 -0.1)">
       <use transform="scale(0.996264)" xlink:href="#CMSS17-50"/>
       <use transform="translate(46.843624 0)scale(0.996264)" xlink:href="#CMSS17-46"/>
       <use transform="translate(72.867828 0)scale(0.996264)" xlink:href="#CMSS17-53"/>
      </g>
     </g>
    </g>
    <g id="ytick_3">
     <g id="line2d_11">
      <g>
       <use style="fill:#ffffff;stroke:#ffffff;stroke-width:0.8;" x="39.833789" xlink:href="#mda48119307" y="136.791057"/>
      </g>
     </g>
     <g id="text_12">
      <!-- $\mathdefault{5.0}$ -->
      <g style="fill:#ffffff;" transform="translate(20.10371 140.250306)scale(0.1 -0.1)">
       <use transform="scale(0.996264)" xlink:href="#CMSS17-53"/>
       <use transform="translate(46.843624 0)scale(0.996264)" xlink:href="#CMSS17-46"/>
       <use transform="translate(72.867828 0)scale(0.996264)" xlink:href="#CMSS17-48"/>
      </g>
     </g>
    </g>
    <g id="ytick_4">
     <g id="line2d_12">
      <g>
       <use style="fill:#ffffff;stroke:#ffffff;stroke-width:0.8;" x="39.833789" xlink:href="#mda48119307" y="114.219786"/>
      </g>
     </g>
     <g id="text_13">
      <!-- $\mathdefault{7.5}$ -->
      <g style="fill:#ffffff;" transform="translate(20.10371 117.679035)scale(0.1 -0.1)">
       <use transform="scale(0.996264)" xlink:href="#CMSS17-55"/>
       <use transform="translate(46.843624 0)scale(0.996264)" xlink:href="#CMSS17-46"/>
       <use transform="translate(72.867828 0)scale(0.996264)" xlink:href="#CMSS17-53"/>
      </g>
     </g>
    </g>
    <g id="ytick_5">
     <g id="line2d_13">
      <g>
       <use style="fill:#ffffff;stroke:#ffffff;stroke-width:0.8;" x="39.833789" xlink:href="#mda48119307" y="91.648515"/>
      </g>
     </g>
     <g id="text_14">
      <!-- $\mathdefault{10.0}$ -->
      <g style="fill:#ffffff;" transform="translate(15.122375 95.107764)scale(0.1 -0.1)">
       <use transform="scale(0.996264)" xlink:href="#CMSS17-49"/>
       <use transform="translate(46.843624 0)scale(0.996264)" xlink:href="#CMSS17-48"/>
       <use transform="translate(93.687247 0)scale(0.996264)" xlink:href="#CMSS17-46"/>
       <use transform="translate(119.711452 0)scale(0.996264)" xlink:href="#CMSS17-48"/>
      </g>
     </g>
    </g>
    <g id="ytick_6">
     <g id="line2d_14">
      <g>
       <use style="fill:#ffffff;stroke:#ffffff;stroke-width:0.8;" x="39.833789" xlink:href="#mda48119307" y="69.077243"/>
      </g>
     </g>
     <g id="text_15">
      <!-- $\mathdefault{12.5}$ -->
      <g style="fill:#ffffff;" transform="translate(15.122375 72.536493)scale(0.1 -0.1)">
       <use transform="scale(0.996264)" xlink:href="#CMSS17-49"/>
       <use transform="translate(46.843624 0)scale(0.996264)" xlink:href="#CMSS17-50"/>
       <use transform="translate(93.687247 0)scale(0.996264)" xlink:href="#CMSS17-46"/>
       <use transform="translate(119.711452 0)scale(0.996264)" xlink:href="#CMSS17-53"/>
      </g>
     </g>
    </g>
    <g id="ytick_7">
     <g id="line2d_15">
      <g>
       <use style="fill:#ffffff;stroke:#ffffff;stroke-width:0.8;" x="39.833789" xlink:href="#mda48119307" y="46.505972"/>
      </g>
     </g>
     <g id="text_16">
      <!-- $\mathdefault{15.0}$ -->
      <g style="fill:#ffffff;" transform="translate(15.122375 49.965221)scale(0.1 -0.1)">
       <use transform="scale(0.996264)" xlink:href="#CMSS17-49"/>
       <use transform="translate(46.843624 0)scale(0.996264)" xlink:href="#CMSS17-53"/>
       <use transform="translate(93.687247 0)scale(0.996264)" xlink:href="#CMSS17-46"/>
       <use transform="translate(119.711452 0)scale(0.996264)" xlink:href="#CMSS17-48"/>
      </g>
     </g>
    </g>
    <g id="ytick_8">
     <g id="line2d_16">
      <g>
       <use style="fill:#ffffff;stroke:#ffffff;stroke-width:0.8;" x="39.833789" xlink:href="#mda48119307" y="23.934701"/>
      </g>
     </g>
     <g id="text_17">
      <!-- $\mathdefault{17.5}$ -->
      <g style="fill:#ffffff;" transform="translate(15.122375 27.39395)scale(0.1 -0.1)">
       <use transform="scale(0.996264)" xlink:href="#CMSS17-49"/>
       <use transform="translate(46.843624 0)scale(0.996264)" xlink:href="#CMSS17-55"/>
       <use transform="translate(93.687247 0)scale(0.996264)" xlink:href="#CMSS17-46"/>
       <use transform="translate(119.711452 0)scale(0.996264)" xlink:href="#CMSS17-53"/>
      </g>
     </g>
    </g>
    <g id="text_18">
     <!-- $LM_{\gamma_5}/(1+c_0m^\omega)$ -->
     <g style="fill:#ffffff;" transform="translate(8.27198 136.009612)rotate(-90)scale(0.1 -0.1)">
      <defs>
       <path d="M 87.703125 69 
L 76 69 
L 59.40625 39.859375 
L 51.09375 24.84375 
C 48.5 20.171875 44.09375 12.234375 43 9.25 
L 42.90625 9.25 
C 42.90625 14.421875 42 21.765625 41.296875 26.734375 
L 35.5 69 
L 23.796875 69 
L 9 0 
L 16.796875 0 
L 30 61.125 
L 30 60.03125 
C 30 56.359375 31.59375 43.328125 32.703125 35.28125 
L 37.40625 1.59375 
L 44.90625 1.59375 
L 62.40625 32.296875 
L 70.59375 47.109375 
C 71 47.8125 77.796875 60.234375 77.90625 60.828125 
L 78 60.828125 
L 65 0 
L 72.90625 0 
z
" id="CMSSI17-77"/>
       <path d="M 37.796875 12.265625 
C 37.59375 17.140625 37.40625 24.78125 33.59375 33.71875 
C 31.59375 38.6875 28.203125 44 20.90625 44 
C 8.59375 44 1.90625 28.359375 1.90625 25.765625 
C 1.90625 24.875 2.59375 24.875 2.90625 24.875 
C 3.796875 24.875 3.796875 25.078125 4.296875 26.375 
C 6.40625 32.515625 12.796875 37.390625 19.703125 37.390625 
C 33.59375 37.390625 35.59375 22 35.59375 12.171875 
C 35.59375 5.90625 34.90625 3.828125 34.296875 1.84375 
C 32.40625 -4.3125 29.09375 -16.625 29.09375 -19.40625 
C 29.09375 -20.203125 29.40625 -21.109375 30.203125 -21.109375 
C 31.703125 -21.109375 32.59375 -17.8125 33.703125 -13.84375 
C 36.09375 -5.109375 36.703125 -0.734375 37.203125 3.234375 
C 37.5 5.625 43.203125 22.015625 51.09375 37.609375 
C 51.796875 39.203125 53.203125 41.890625 53.203125 42.1875 
C 53.203125 42.296875 53.09375 43 52.203125 43 
C 52 43 51.5 43 51.296875 42.59375 
C 51.09375 42.390625 47.59375 35.625 44.59375 28.875 
C 43.09375 25.46875 41.09375 21 37.796875 12.265625 
z
" id="CMMI12-13"/>
       <path d="M 25.203125 75 
C 19.796875 69.484375 7.40625 56.671875 7.40625 25.046875 
C 7.40625 -6.6875 19.796875 -19.40625 25.203125 -25 
L 31.296875 -25 
C 19 -12.203125 15 5.71875 15 24.9375 
C 15 44.0625 18.796875 62.078125 31.296875 75 
z
" id="CMSS17-40"/>
       <path d="M 38.296875 23 
L 64.703125 23 
C 66.09375 23 67.796875 23 67.796875 24.6875 
C 67.796875 26.5 66.203125 26.5 64.703125 26.5 
L 38.296875 26.5 
L 38.296875 52.890625 
C 38.296875 54.296875 38.296875 56 36.59375 56 
C 34.796875 56 34.796875 54.390625 34.796875 52.890625 
L 34.796875 26.5 
L 8.296875 26.5 
C 6.90625 26.5 5.203125 26.5 5.203125 24.796875 
C 5.203125 23 6.796875 23 8.296875 23 
L 34.796875 23 
L 34.796875 -3.03125 
C 34.796875 -4.40625 34.796875 -6.109375 36.5 -6.109375 
C 38.296875 -6.109375 38.296875 -4.515625 38.296875 -3.03125 
z
" id="CMSS17-43"/>
       <path d="M 47.09375 39.984375 
C 42.296875 43.1875 39.203125 44 33.5 44 
C 18.40625 44 7.296875 28.890625 7.296875 16.1875 
C 7.296875 7.09375 13 -1 23.59375 -1 
C 30.5 -1 35.796875 1.390625 40 3.796875 
C 40.203125 6 40.5 8.1875 40.703125 10.390625 
C 38.703125 9.09375 32.90625 5.296875 25 5.296875 
C 18.90625 5.296875 15 9.390625 15 16.6875 
C 15 25.6875 20.90625 37.6875 32.203125 37.6875 
C 37 37.6875 40 36.984375 44.59375 33.59375 
z
" id="CMSSI17-99"/>
       <path d="M 59.40625 37.59375 
C 59.40625 40.5 58.59375 44.1875 55.09375 44.1875 
C 53.09375 44.1875 50.796875 41.6875 50.796875 39.6875 
C 50.796875 38.796875 51.203125 38.1875 52 37.296875 
C 53.5 35.59375 55.40625 32.890625 55.40625 28.1875 
C 55.40625 24.59375 53.203125 18.890625 51.59375 15.796875 
C 48.796875 10.296875 44.203125 5.59375 39 5.59375 
C 32.703125 5.59375 30.296875 9.59375 29.203125 15.1875 
C 30.296875 17.796875 32.59375 24.296875 32.59375 26.890625 
C 32.59375 28 32.203125 28.890625 30.90625 28.890625 
C 30.203125 28.890625 29.40625 28.5 28.90625 27.6875 
C 27.5 25.5 26.203125 17.59375 26.296875 15.5 
C 24.40625 11.796875 19 5.59375 12.59375 5.59375 
C 5.90625 5.59375 4.09375 11.5 4.09375 17.1875 
C 4.09375 27.59375 10.59375 36.6875 12.40625 39.1875 
C 13.40625 40.6875 14.09375 41.6875 14.09375 41.890625 
C 14.09375 42.59375 13.703125 43.6875 12.796875 43.6875 
C 11.203125 43.6875 10.703125 42.390625 9.90625 41.1875 
C 4.796875 33.296875 1.203125 22.1875 1.203125 12.59375 
C 1.203125 6.390625 3.5 -1 11 -1 
C 19.296875 -1 24.5 6.09375 26.59375 9.890625 
C 27.40625 4.296875 30.40625 -1 37.703125 -1 
C 45.296875 -1 50.09375 5.6875 53.703125 13.796875 
C 56.296875 19.59375 59.40625 32.09375 59.40625 37.59375 
z
" id="CMMI12-33"/>
       <path d="M 11.296875 -25 
C 16.703125 -19.5 29.09375 -6.6875 29.09375 24.9375 
C 29.09375 56.671875 16.703125 69.375 11.296875 75 
L 5.203125 75 
C 17.5 62.171875 21.5 44.265625 21.5 25.046875 
C 21.5 5.921875 17.703125 -12.09375 5.203125 -25 
z
" id="CMSS17-41"/>
      </defs>
      <use transform="scale(0.996264)" xlink:href="#CMSSI17-76"/>
      <use transform="translate(50.687121 0)scale(0.996264)" xlink:href="#CMSSI17-77"/>
      <use transform="translate(132.363166 -14.943915)scale(0.697382)" xlink:href="#CMMI12-13"/>
      <use transform="translate(167.782391 -25.404611)scale(0.498132)" xlink:href="#CMSS17-53"/>
      <use transform="translate(192.200467 0)scale(0.996264)" xlink:href="#CMMI12-61"/>
      <use transform="translate(240.975386 0)scale(0.996264)" xlink:href="#CMSS17-40"/>
      <use transform="translate(277.4093 0)scale(0.996264)" xlink:href="#CMSS17-49"/>
      <use transform="translate(346.392131 0)scale(0.996264)" xlink:href="#CMSS17-43"/>
      <use transform="translate(441.399272 0)scale(0.996264)" xlink:href="#CMSSI17-99"/>
      <use transform="translate(483.038094 -14.943915)scale(0.697382)" xlink:href="#CMSS17-48"/>
      <use transform="translate(516.326608 0)scale(0.996264)" xlink:href="#CMSSI17-109"/>
      <use transform="translate(592.704345 36.153639)scale(0.697382)" xlink:href="#CMMI12-33"/>
      <use transform="translate(638.22511 0)scale(0.996264)" xlink:href="#CMSS17-41"/>
     </g>
    </g>
   </g>
   <g id="LineCollection_1">
    <path clip-path="url(#p6ba871e160)" d="M 226.513152 72.638192 
L 226.513152 72.524221 
" style="fill:none;stroke:#8dd3c7;"/>
    <path clip-path="url(#p6ba871e160)" d="M 217.177121 77.855966 
L 217.177121 77.753781 
" style="fill:none;stroke:#8dd3c7;"/>
    <path clip-path="url(#p6ba871e160)" d="M 206.543585 83.966845 
L 206.543585 83.822551 
" style="fill:none;stroke:#8dd3c7;"/>
    <path clip-path="url(#p6ba871e160)" d="M 243.730242 62.150241 
L 243.730242 61.995775 
" style="fill:none;stroke:#8dd3c7;"/>
    <path clip-path="url(#p6ba871e160)" d="M 220.252238 75.745824 
L 220.252238 75.552933 
" style="fill:none;stroke:#8dd3c7;"/>
    <path clip-path="url(#p6ba871e160)" d="M 253.387557 56.880486 
L 253.387557 56.657403 
" style="fill:none;stroke:#8dd3c7;"/>
    <path clip-path="url(#p6ba871e160)" d="M 219.846471 76.348939 
L 219.846471 76.105805 
" style="fill:none;stroke:#8dd3c7;"/>
    <path clip-path="url(#p6ba871e160)" d="M 270.368676 46.671017 
L 270.368676 46.462651 
" style="fill:none;stroke:#8dd3c7;"/>
   </g>
   <g id="LineCollection_2">
    <path clip-path="url(#p6ba871e160)" d="M 240.573225 64.340019 
L 240.573225 64.220203 
" style="fill:none;stroke:#feffb3;"/>
    <path clip-path="url(#p6ba871e160)" d="M 232.713113 68.828487 
L 232.713113 68.692097 
" style="fill:none;stroke:#feffb3;"/>
    <path clip-path="url(#p6ba871e160)" d="M 224.030543 73.826366 
L 224.030543 73.66044 
" style="fill:none;stroke:#feffb3;"/>
    <path clip-path="url(#p6ba871e160)" d="M 272.763537 45.046928 
L 272.763537 44.930895 
" style="fill:none;stroke:#feffb3;"/>
    <path clip-path="url(#p6ba871e160)" d="M 257.8894 53.89183 
L 257.8894 53.754119 
" style="fill:none;stroke:#feffb3;"/>
    <path clip-path="url(#p6ba871e160)" d="M 239.743919 64.748861 
L 239.743919 64.586922 
" style="fill:none;stroke:#feffb3;"/>
    <path clip-path="url(#p6ba871e160)" d="M 307.03737 25.015611 
L 307.03737 24.883168 
" style="fill:none;stroke:#feffb3;"/>
    <path clip-path="url(#p6ba871e160)" d="M 251.412004 58.240099 
L 251.412004 57.914473 
" style="fill:none;stroke:#feffb3;"/>
   </g>
   <g id="LineCollection_3">
    <path clip-path="url(#p6ba871e160)" d="M 253.640882 56.470746 
L 253.640882 56.381767 
" style="fill:none;stroke:#bfbbd9;"/>
    <path clip-path="url(#p6ba871e160)" d="M 247.102446 60.281441 
L 247.102446 60.14249 
" style="fill:none;stroke:#bfbbd9;"/>
    <path clip-path="url(#p6ba871e160)" d="M 306.549651 25.366958 
L 306.549651 25.264675 
" style="fill:none;stroke:#bfbbd9;"/>
    <path clip-path="url(#p6ba871e160)" d="M 239.77981 64.521788 
L 239.77981 64.360478 
" style="fill:none;stroke:#bfbbd9;"/>
    <path clip-path="url(#p6ba871e160)" d="M 296.641056 31.038954 
L 296.641056 30.927753 
" style="fill:none;stroke:#bfbbd9;"/>
    <path clip-path="url(#p6ba871e160)" d="M 232.5437 68.603246 
L 232.5437 68.442949 
" style="fill:none;stroke:#bfbbd9;"/>
    <path clip-path="url(#p6ba871e160)" d="M 285.130955 37.96489 
L 285.130955 37.838661 
" style="fill:none;stroke:#bfbbd9;"/>
    <path clip-path="url(#p6ba871e160)" d="M 223.883808 73.939705 
L 223.883808 73.754141 
" style="fill:none;stroke:#bfbbd9;"/>
    <path clip-path="url(#p6ba871e160)" d="M 214.626112 79.386808 
L 214.626112 79.16626 
" style="fill:none;stroke:#bfbbd9;"/>
    <path clip-path="url(#p6ba871e160)" d="M 259.402656 53.115606 
L 259.402656 52.945633 
" style="fill:none;stroke:#bfbbd9;"/>
    <path clip-path="url(#p6ba871e160)" d="M 204.127137 85.571968 
L 204.127137 85.297902 
" style="fill:none;stroke:#bfbbd9;"/>
    <path clip-path="url(#p6ba871e160)" d="M 243.388743 62.837646 
L 243.388743 62.626229 
" style="fill:none;stroke:#bfbbd9;"/>
    <path clip-path="url(#p6ba871e160)" d="M 317.529864 19.23304 
L 317.529864 19.090452 
" style="fill:none;stroke:#bfbbd9;"/>
    <path clip-path="url(#p6ba871e160)" d="M 224.954751 73.681865 
L 224.954751 73.400057 
" style="fill:none;stroke:#bfbbd9;"/>
    <path clip-path="url(#p6ba871e160)" d="M 284.135011 38.63305 
L 284.135011 38.436633 
" style="fill:none;stroke:#bfbbd9;"/>
    <path clip-path="url(#p6ba871e160)" d="M 250.024475 57.772416 
L 250.024475 57.468365 
" style="fill:none;stroke:#bfbbd9;"/>
   </g>
   <g id="line2d_17">
    <defs>
     <path d="M 2 0 
L -2 -0 
" id="mc887c11520" style="stroke:#8dd3c7;"/>
    </defs>
    <g clip-path="url(#p6ba871e160)">
     <use style="fill:#8dd3c7;stroke:#8dd3c7;" x="226.513152" xlink:href="#mc887c11520" y="72.638192"/>
     <use style="fill:#8dd3c7;stroke:#8dd3c7;" x="217.177121" xlink:href="#mc887c11520" y="77.855966"/>
     <use style="fill:#8dd3c7;stroke:#8dd3c7;" x="206.543585" xlink:href="#mc887c11520" y="83.966845"/>
     <use style="fill:#8dd3c7;stroke:#8dd3c7;" x="243.730242" xlink:href="#mc887c11520" y="62.150241"/>
     <use style="fill:#8dd3c7;stroke:#8dd3c7;" x="220.252238" xlink:href="#mc887c11520" y="75.745824"/>
     <use style="fill:#8dd3c7;stroke:#8dd3c7;" x="253.387557" xlink:href="#mc887c11520" y="56.880486"/>
     <use style="fill:#8dd3c7;stroke:#8dd3c7;" x="219.846471" xlink:href="#mc887c11520" y="76.348939"/>
     <use style="fill:#8dd3c7;stroke:#8dd3c7;" x="270.368676" xlink:href="#mc887c11520" y="46.671017"/>
    </g>
   </g>
   <g id="line2d_18">
    <g clip-path="url(#p6ba871e160)">
     <use style="fill:#8dd3c7;stroke:#8dd3c7;" x="226.513152" xlink:href="#mc887c11520" y="72.524221"/>
     <use style="fill:#8dd3c7;stroke:#8dd3c7;" x="217.177121" xlink:href="#mc887c11520" y="77.753781"/>
     <use style="fill:#8dd3c7;stroke:#8dd3c7;" x="206.543585" xlink:href="#mc887c11520" y="83.822551"/>
     <use style="fill:#8dd3c7;stroke:#8dd3c7;" x="243.730242" xlink:href="#mc887c11520" y="61.995775"/>
     <use style="fill:#8dd3c7;stroke:#8dd3c7;" x="220.252238" xlink:href="#mc887c11520" y="75.552933"/>
     <use style="fill:#8dd3c7;stroke:#8dd3c7;" x="253.387557" xlink:href="#mc887c11520" y="56.657403"/>
     <use style="fill:#8dd3c7;stroke:#8dd3c7;" x="219.846471" xlink:href="#mc887c11520" y="76.105805"/>
     <use style="fill:#8dd3c7;stroke:#8dd3c7;" x="270.368676" xlink:href="#mc887c11520" y="46.462651"/>
    </g>
   </g>
   <g id="line2d_19">
    <defs>
     <path d="M 2 0 
L -2 -0 
" id="m09058fa55a" style="stroke:#feffb3;"/>
    </defs>
    <g clip-path="url(#p6ba871e160)">
     <use style="fill:#feffb3;stroke:#feffb3;" x="240.573225" xlink:href="#m09058fa55a" y="64.340019"/>
     <use style="fill:#feffb3;stroke:#feffb3;" x="232.713113" xlink:href="#m09058fa55a" y="68.828487"/>
     <use style="fill:#feffb3;stroke:#feffb3;" x="224.030543" xlink:href="#m09058fa55a" y="73.826366"/>
     <use style="fill:#feffb3;stroke:#feffb3;" x="272.763537" xlink:href="#m09058fa55a" y="45.046928"/>
     <use style="fill:#feffb3;stroke:#feffb3;" x="257.8894" xlink:href="#m09058fa55a" y="53.89183"/>
     <use style="fill:#feffb3;stroke:#feffb3;" x="239.743919" xlink:href="#m09058fa55a" y="64.748861"/>
     <use style="fill:#feffb3;stroke:#feffb3;" x="307.03737" xlink:href="#m09058fa55a" y="25.015611"/>
     <use style="fill:#feffb3;stroke:#feffb3;" x="251.412004" xlink:href="#m09058fa55a" y="58.240099"/>
    </g>
   </g>
   <g id="line2d_20">
    <g clip-path="url(#p6ba871e160)">
     <use style="fill:#feffb3;stroke:#feffb3;" x="240.573225" xlink:href="#m09058fa55a" y="64.220203"/>
     <use style="fill:#feffb3;stroke:#feffb3;" x="232.713113" xlink:href="#m09058fa55a" y="68.692097"/>
     <use style="fill:#feffb3;stroke:#feffb3;" x="224.030543" xlink:href="#m09058fa55a" y="73.66044"/>
     <use style="fill:#feffb3;stroke:#feffb3;" x="272.763537" xlink:href="#m09058fa55a" y="44.930895"/>
     <use style="fill:#feffb3;stroke:#feffb3;" x="257.8894" xlink:href="#m09058fa55a" y="53.754119"/>
     <use style="fill:#feffb3;stroke:#feffb3;" x="239.743919" xlink:href="#m09058fa55a" y="64.586922"/>
     <use style="fill:#feffb3;stroke:#feffb3;" x="307.03737" xlink:href="#m09058fa55a" y="24.883168"/>
     <use style="fill:#feffb3;stroke:#feffb3;" x="251.412004" xlink:href="#m09058fa55a" y="57.914473"/>
    </g>
   </g>
   <g id="line2d_21">
    <defs>
     <path d="M 2 0 
L -2 -0 
" id="mdf4eedc3e8" style="stroke:#bfbbd9;"/>
    </defs>
    <g clip-path="url(#p6ba871e160)">
     <use style="fill:#bfbbd9;stroke:#bfbbd9;" x="253.640882" xlink:href="#mdf4eedc3e8" y="56.470746"/>
     <use style="fill:#bfbbd9;stroke:#bfbbd9;" x="247.102446" xlink:href="#mdf4eedc3e8" y="60.281441"/>
     <use style="fill:#bfbbd9;stroke:#bfbbd9;" x="306.549651" xlink:href="#mdf4eedc3e8" y="25.366958"/>
     <use style="fill:#bfbbd9;stroke:#bfbbd9;" x="239.77981" xlink:href="#mdf4eedc3e8" y="64.521788"/>
     <use style="fill:#bfbbd9;stroke:#bfbbd9;" x="296.641056" xlink:href="#mdf4eedc3e8" y="31.038954"/>
     <use style="fill:#bfbbd9;stroke:#bfbbd9;" x="232.5437" xlink:href="#mdf4eedc3e8" y="68.603246"/>
     <use style="fill:#bfbbd9;stroke:#bfbbd9;" x="285.130955" xlink:href="#mdf4eedc3e8" y="37.96489"/>
     <use style="fill:#bfbbd9;stroke:#bfbbd9;" x="223.883808" xlink:href="#mdf4eedc3e8" y="73.939705"/>
     <use style="fill:#bfbbd9;stroke:#bfbbd9;" x="214.626112" xlink:href="#mdf4eedc3e8" y="79.386808"/>
     <use style="fill:#bfbbd9;stroke:#bfbbd9;" x="259.402656" xlink:href="#mdf4eedc3e8" y="53.115606"/>
     <use style="fill:#bfbbd9;stroke:#bfbbd9;" x="204.127137" xlink:href="#mdf4eedc3e8" y="85.571968"/>
     <use style="fill:#bfbbd9;stroke:#bfbbd9;" x="243.388743" xlink:href="#mdf4eedc3e8" y="62.837646"/>
     <use style="fill:#bfbbd9;stroke:#bfbbd9;" x="317.529864" xlink:href="#mdf4eedc3e8" y="19.23304"/>
     <use style="fill:#bfbbd9;stroke:#bfbbd9;" x="224.954751" xlink:href="#mdf4eedc3e8" y="73.681865"/>
     <use style="fill:#bfbbd9;stroke:#bfbbd9;" x="284.135011" xlink:href="#mdf4eedc3e8" y="38.63305"/>
     <use style="fill:#bfbbd9;stroke:#bfbbd9;" x="250.024475" xlink:href="#mdf4eedc3e8" y="57.772416"/>
    </g>
   </g>
   <g id="line2d_22">
    <g clip-path="url(#p6ba871e160)">
     <use style="fill:#bfbbd9;stroke:#bfbbd9;" x="253.640882" xlink:href="#mdf4eedc3e8" y="56.381767"/>
     <use style="fill:#bfbbd9;stroke:#bfbbd9;" x="247.102446" xlink:href="#mdf4eedc3e8" y="60.14249"/>
     <use style="fill:#bfbbd9;stroke:#bfbbd9;" x="306.549651" xlink:href="#mdf4eedc3e8" y="25.264675"/>
     <use style="fill:#bfbbd9;stroke:#bfbbd9;" x="239.77981" xlink:href="#mdf4eedc3e8" y="64.360478"/>
     <use style="fill:#bfbbd9;stroke:#bfbbd9;" x="296.641056" xlink:href="#mdf4eedc3e8" y="30.927753"/>
     <use style="fill:#bfbbd9;stroke:#bfbbd9;" x="232.5437" xlink:href="#mdf4eedc3e8" y="68.442949"/>
     <use style="fill:#bfbbd9;stroke:#bfbbd9;" x="285.130955" xlink:href="#mdf4eedc3e8" y="37.838661"/>
     <use style="fill:#bfbbd9;stroke:#bfbbd9;" x="223.883808" xlink:href="#mdf4eedc3e8" y="73.754141"/>
     <use style="fill:#bfbbd9;stroke:#bfbbd9;" x="214.626112" xlink:href="#mdf4eedc3e8" y="79.16626"/>
     <use style="fill:#bfbbd9;stroke:#bfbbd9;" x="259.402656" xlink:href="#mdf4eedc3e8" y="52.945633"/>
     <use style="fill:#bfbbd9;stroke:#bfbbd9;" x="204.127137" xlink:href="#mdf4eedc3e8" y="85.297902"/>
     <use style="fill:#bfbbd9;stroke:#bfbbd9;" x="243.388743" xlink:href="#mdf4eedc3e8" y="62.626229"/>
     <use style="fill:#bfbbd9;stroke:#bfbbd9;" x="317.529864" xlink:href="#mdf4eedc3e8" y="19.090452"/>
     <use style="fill:#bfbbd9;stroke:#bfbbd9;" x="224.954751" xlink:href="#mdf4eedc3e8" y="73.400057"/>
     <use style="fill:#bfbbd9;stroke:#bfbbd9;" x="284.135011" xlink:href="#mdf4eedc3e8" y="38.436633"/>
     <use style="fill:#bfbbd9;stroke:#bfbbd9;" x="250.024475" xlink:href="#mdf4eedc3e8" y="57.468365"/>
    </g>
   </g>
   <g id="line2d_23">
    <path clip-path="url(#p6ba871e160)" d="M 39.833789 182.177493 
L 209.456406 82.348388 
L 323.2 15.550371 
L 323.2 15.550371 
" style="fill:none;stroke:#fa8174;stroke-linecap:square;"/>
   </g>
   <g id="line2d_24">
    <defs>
     <path d="M 0 1 
C 0.265203 1 0.51958 0.894634 0.707107 0.707107 
C 0.894634 0.51958 1 0.265203 1 0 
C 1 -0.265203 0.894634 -0.51958 0.707107 -0.707107 
C 0.51958 -0.894634 0.265203 -1 0 -1 
C -0.265203 -1 -0.51958 -0.894634 -0.707107 -0.707107 
C -0.894634 -0.51958 -1 -0.265203 -1 0 
C -1 0.265203 -0.894634 0.51958 -0.707107 0.707107 
C -0.51958 0.894634 -0.265203 1 0 1 
z
" id="m9f370c9581" style="stroke:#8dd3c7;"/>
    </defs>
    <g clip-path="url(#p6ba871e160)">
     <use style="fill:#8dd3c7;stroke:#8dd3c7;" x="226.513152" xlink:href="#m9f370c9581" y="72.581207"/>
     <use style="fill:#8dd3c7;stroke:#8dd3c7;" x="217.177121" xlink:href="#m9f370c9581" y="77.804873"/>
     <use style="fill:#8dd3c7;stroke:#8dd3c7;" x="206.543585" xlink:href="#m9f370c9581" y="83.894698"/>
     <use style="fill:#8dd3c7;stroke:#8dd3c7;" x="243.730242" xlink:href="#m9f370c9581" y="62.073008"/>
     <use style="fill:#8dd3c7;stroke:#8dd3c7;" x="220.252238" xlink:href="#m9f370c9581" y="75.649379"/>
     <use style="fill:#8dd3c7;stroke:#8dd3c7;" x="253.387557" xlink:href="#m9f370c9581" y="56.768944"/>
     <use style="fill:#8dd3c7;stroke:#8dd3c7;" x="219.846471" xlink:href="#m9f370c9581" y="76.227372"/>
     <use style="fill:#8dd3c7;stroke:#8dd3c7;" x="270.368676" xlink:href="#m9f370c9581" y="46.566834"/>
    </g>
   </g>
   <g id="line2d_25">
    <defs>
     <path d="M 0 1 
C 0.265203 1 0.51958 0.894634 0.707107 0.707107 
C 0.894634 0.51958 1 0.265203 1 0 
C 1 -0.265203 0.894634 -0.51958 0.707107 -0.707107 
C 0.51958 -0.894634 0.265203 -1 0 -1 
C -0.265203 -1 -0.51958 -0.894634 -0.707107 -0.707107 
C -0.894634 -0.51958 -1 -0.265203 -1 0 
C -1 0.265203 -0.894634 0.51958 -0.707107 0.707107 
C -0.51958 0.894634 -0.265203 1 0 1 
z
" id="m0284644fc8" style="stroke:#feffb3;"/>
    </defs>
    <g clip-path="url(#p6ba871e160)">
     <use style="fill:#feffb3;stroke:#feffb3;" x="240.573225" xlink:href="#m0284644fc8" y="64.280111"/>
     <use style="fill:#feffb3;stroke:#feffb3;" x="232.713113" xlink:href="#m0284644fc8" y="68.760292"/>
     <use style="fill:#feffb3;stroke:#feffb3;" x="224.030543" xlink:href="#m0284644fc8" y="73.743403"/>
     <use style="fill:#feffb3;stroke:#feffb3;" x="272.763537" xlink:href="#m0284644fc8" y="44.988911"/>
     <use style="fill:#feffb3;stroke:#feffb3;" x="257.8894" xlink:href="#m0284644fc8" y="53.822974"/>
     <use style="fill:#feffb3;stroke:#feffb3;" x="239.743919" xlink:href="#m0284644fc8" y="64.667892"/>
     <use style="fill:#feffb3;stroke:#feffb3;" x="307.03737" xlink:href="#m0284644fc8" y="24.94939"/>
     <use style="fill:#feffb3;stroke:#feffb3;" x="251.412004" xlink:href="#m0284644fc8" y="58.077286"/>
    </g>
   </g>
   <g id="line2d_26">
    <defs>
     <path d="M 0 1 
C 0.265203 1 0.51958 0.894634 0.707107 0.707107 
C 0.894634 0.51958 1 0.265203 1 0 
C 1 -0.265203 0.894634 -0.51958 0.707107 -0.707107 
C 0.51958 -0.894634 0.265203 -1 0 -1 
C -0.265203 -1 -0.51958 -0.894634 -0.707107 -0.707107 
C -0.894634 -0.51958 -1 -0.265203 -1 0 
C -1 0.265203 -0.894634 0.51958 -0.707107 0.707107 
C -0.51958 0.894634 -0.265203 1 0 1 
z
" id="md18a7c540d" style="stroke:#bfbbd9;"/>
    </defs>
    <g clip-path="url(#p6ba871e160)">
     <use style="fill:#bfbbd9;stroke:#bfbbd9;" x="253.640882" xlink:href="#md18a7c540d" y="56.426256"/>
     <use style="fill:#bfbbd9;stroke:#bfbbd9;" x="247.102446" xlink:href="#md18a7c540d" y="60.211965"/>
     <use style="fill:#bfbbd9;stroke:#bfbbd9;" x="306.549651" xlink:href="#md18a7c540d" y="25.315816"/>
     <use style="fill:#bfbbd9;stroke:#bfbbd9;" x="239.77981" xlink:href="#md18a7c540d" y="64.441133"/>
     <use style="fill:#bfbbd9;stroke:#bfbbd9;" x="296.641056" xlink:href="#md18a7c540d" y="30.983354"/>
     <use style="fill:#bfbbd9;stroke:#bfbbd9;" x="232.5437" xlink:href="#md18a7c540d" y="68.523098"/>
     <use style="fill:#bfbbd9;stroke:#bfbbd9;" x="285.130955" xlink:href="#md18a7c540d" y="37.901776"/>
     <use style="fill:#bfbbd9;stroke:#bfbbd9;" x="223.883808" xlink:href="#md18a7c540d" y="73.846923"/>
     <use style="fill:#bfbbd9;stroke:#bfbbd9;" x="214.626112" xlink:href="#md18a7c540d" y="79.276534"/>
     <use style="fill:#bfbbd9;stroke:#bfbbd9;" x="259.402656" xlink:href="#md18a7c540d" y="53.03062"/>
     <use style="fill:#bfbbd9;stroke:#bfbbd9;" x="204.127137" xlink:href="#md18a7c540d" y="85.434935"/>
     <use style="fill:#bfbbd9;stroke:#bfbbd9;" x="243.388743" xlink:href="#md18a7c540d" y="62.731937"/>
     <use style="fill:#bfbbd9;stroke:#bfbbd9;" x="317.529864" xlink:href="#md18a7c540d" y="19.161746"/>
     <use style="fill:#bfbbd9;stroke:#bfbbd9;" x="224.954751" xlink:href="#md18a7c540d" y="73.540961"/>
     <use style="fill:#bfbbd9;stroke:#bfbbd9;" x="284.135011" xlink:href="#md18a7c540d" y="38.534841"/>
     <use style="fill:#bfbbd9;stroke:#bfbbd9;" x="250.024475" xlink:href="#md18a7c540d" y="57.62039"/>
    </g>
   </g>
   <g id="patch_3">
    <path d="M 39.833789 181.9336 
L 39.833789 15.766376 
" style="fill:none;stroke:#ffffff;stroke-linecap:square;stroke-linejoin:miter;stroke-width:0.8;"/>
   </g>
   <g id="patch_4">
    <path d="M 323.2 181.9336 
L 323.2 15.766376 
" style="fill:none;stroke:#ffffff;stroke-linecap:square;stroke-linejoin:miter;stroke-width:0.8;"/>
   </g>
   <g id="patch_5">
    <path d="M 39.833789 181.9336 
L 323.2 181.9336 
" style="fill:none;stroke:#ffffff;stroke-linecap:square;stroke-linejoin:miter;stroke-width:0.8;"/>
   </g>
   <g id="patch_6">
    <path d="M 39.833789 15.766376 
L 323.2 15.766376 
" style="fill:none;stroke:#ffffff;stroke-linecap:square;stroke-linejoin:miter;stroke-width:0.8;"/>
   </g>
   <g id="text_19">
    <!-- $\gamma_*=1.016(13)$, $\omega=-0.690(23)$ -->
    <g style="fill:#ffffff;" transform="translate(100.809059 9.766376)scale(0.12 -0.12)">
     <defs>
      <path d="M 27.5 43.15625 
C 27.59375 44.578125 27.59375 47 25 47 
C 23.40625 47 22.09375 45.6875 22.40625 44.375 
L 22.40625 43.046875 
L 23.796875 27.1875 
L 11 36.703125 
C 10.09375 37.21875 9.90625 37.421875 9.203125 37.421875 
C 7.796875 37.421875 6.5 35.984375 6.5 34.5625 
C 6.5 32.921875 7.5 32.515625 8.5 32 
L 22.703125 25.046875 
L 8.90625 18.1875 
C 7.296875 17.375 6.5 16.953125 6.5 15.421875 
C 6.5 13.890625 7.796875 12.5625 9.203125 12.5625 
C 9.90625 12.5625 10.09375 12.5625 12.59375 14.5 
L 23.796875 22.796875 
L 22.296875 5.609375 
C 22.296875 3.5 24.09375 3 24.90625 3 
C 26.09375 3 27.59375 3.6875 27.59375 5.609375 
L 26.09375 22.796875 
L 38.90625 13.28125 
C 39.796875 12.765625 40 12.5625 40.703125 12.5625 
C 42.09375 12.5625 43.40625 14 43.40625 15.421875 
C 43.40625 16.953125 42.5 17.46875 41.296875 18.078125 
C 35.296875 21.15625 35.09375 21.15625 27.203125 24.9375 
L 41 31.796875 
C 42.59375 32.609375 43.40625 33.015625 43.40625 34.5625 
C 43.40625 36.09375 42.09375 37.421875 40.703125 37.421875 
C 40 37.421875 39.796875 37.421875 37.296875 35.484375 
L 26.09375 27.1875 
z
" id="CMSY10-3"/>
      <path d="M 64.796875 32 
C 66.296875 32 67.796875 32 67.796875 33.6875 
C 67.796875 35.5 66.09375 35.5 64.40625 35.5 
L 8.59375 35.5 
C 6.90625 35.5 5.203125 35.5 5.203125 33.6875 
C 5.203125 32 6.703125 32 8.203125 32 
z
M 64.40625 14.484375 
C 66.09375 14.484375 67.796875 14.484375 67.796875 16.296875 
C 67.796875 18 66.296875 18 64.796875 18 
L 8.203125 18 
C 6.703125 18 5.203125 18 5.203125 16.296875 
C 5.203125 14.484375 6.90625 14.484375 8.59375 14.484375 
z
" id="CMSS17-61"/>
      <path d="M 17 0.09375 
L 17 8 
L 9 8 
L 9 0 
L 11.5 0 
L 8.90625 -12.109375 
L 12.90625 -12.109375 
z
" id="CMSS17-44"/>
      <path d="M 65.90625 23 
C 67.59375 23 69.40625 23 69.40625 25 
C 69.40625 27 67.59375 27 65.90625 27 
L 11.796875 27 
C 10.09375 27 8.296875 27 8.296875 25 
C 8.296875 23 10.09375 23 11.796875 23 
z
" id="CMSY10-0"/>
      <path d="M 6.796875 2.6875 
C 9.59375 0.296875 13.203125 -2 19.296875 -2 
C 31.40625 -2 43 11.53125 43 33.375 
C 43 62.296875 30.5 67 23.796875 67 
C 17.09375 67 12.796875 63.984375 9.09375 59.203125 
C 4.703125 53.71875 3.90625 48.828125 3.90625 43.140625 
C 3.90625 36.359375 5.09375 32.171875 7.90625 27.390625 
C 11.703125 21.1875 15.203125 19.890625 19.09375 19.890625 
C 25 19.890625 30.90625 22.796875 34.90625 27.78125 
C 34.203125 14.1875 28.09375 4.1875 19.296875 4.1875 
C 15.703125 4.1875 12.796875 5.3125 9.90625 8.0625 
z
M 34.59375 43.34375 
C 34.703125 42.640625 34.703125 41.34375 34.703125 40.953125 
C 34.703125 32.578125 29.90625 26 22.90625 26 
C 18.296875 26 15.90625 28.390625 14.09375 31.484375 
C 11.90625 35.359375 11.796875 39.15625 11.796875 43.140625 
C 11.796875 47.03125 11.796875 51.3125 14.59375 55.609375 
C 16.703125 58.703125 19.296875 60.890625 23.796875 60.890625 
C 33 60.890625 34.5 47.4375 34.59375 43.34375 
z
" id="CMSS17-57"/>
     </defs>
     <use transform="scale(0.996264)" xlink:href="#CMMI12-13"/>
     <use transform="translate(50.599133 -14.943915)scale(0.697382)" xlink:href="#CMSY10-3"/>
     <use transform="translate(113.640483 0)scale(0.996264)" xlink:href="#CMSS17-61"/>
     <use transform="translate(214.182427 0)scale(0.996264)" xlink:href="#CMSS17-49"/>
     <use transform="translate(261.02605 0)scale(0.996264)" xlink:href="#CMSS17-46"/>
     <use transform="translate(287.050255 0)scale(0.996264)" xlink:href="#CMSS17-48"/>
     <use transform="translate(333.893879 0)scale(0.996264)" xlink:href="#CMSS17-49"/>
     <use transform="translate(380.737502 0)scale(0.996264)" xlink:href="#CMSS17-54"/>
     <use transform="translate(427.581126 0)scale(0.996264)" xlink:href="#CMSS17-40"/>
     <use transform="translate(464.01504 0)scale(0.996264)" xlink:href="#CMSS17-49"/>
     <use transform="translate(510.858664 0)scale(0.996264)" xlink:href="#CMSS17-51"/>
     <use transform="translate(557.702287 0)scale(0.996264)" xlink:href="#CMSS17-41"/>
     <use transform="translate(594.136201 0)scale(0.996264)" xlink:href="#CMSS17-44"/>
     <use transform="translate(651.389519 0)scale(0.996264)" xlink:href="#CMMI12-33"/>
     <use transform="translate(743.381874 0)scale(0.996264)" xlink:href="#CMSS17-61"/>
     <use transform="translate(843.923817 0)scale(0.996264)" xlink:href="#CMSY10-0"/>
     <use transform="translate(921.411285 0)scale(0.996264)" xlink:href="#CMSS17-48"/>
     <use transform="translate(968.254908 0)scale(0.996264)" xlink:href="#CMSS17-46"/>
     <use transform="translate(994.279113 0)scale(0.996264)" xlink:href="#CMSS17-54"/>
     <use transform="translate(1041.122737 0)scale(0.996264)" xlink:href="#CMSS17-57"/>
     <use transform="translate(1087.96636 0)scale(0.996264)" xlink:href="#CMSS17-48"/>
     <use transform="translate(1134.809984 0)scale(0.996264)" xlink:href="#CMSS17-40"/>
     <use transform="translate(1171.243898 0)scale(0.996264)" xlink:href="#CMSS17-50"/>
     <use transform="translate(1218.087522 0)scale(0.996264)" xlink:href="#CMSS17-51"/>
     <use transform="translate(1264.931145 0)scale(0.996264)" xlink:href="#CMSS17-41"/>
    </g>
   </g>
   <g id="legend_1">
    <g id="line2d_27">
     <path d="M 163.551655 119.824546 
L 183.551655 119.824546 
" style="fill:none;stroke:#fa8174;stroke-linecap:square;"/>
    </g>
    <g id="line2d_28"/>
    <g id="text_20">
     <!-- $-0.027+2.6x+-0.00077x^2$ -->
     <g style="fill:#ffffff;" transform="translate(191.551655 123.324546)scale(0.1 -0.1)">
      <defs>
       <path d="M 29.5 22.1875 
L 50.703125 43 
L 41.90625 43 
L 28.296875 29 
C 27.90625 28.59375 27.5 28.1875 27.296875 27.890625 
L 18.5 43 
L 9.703125 43 
L 22.5 22.1875 
L 0 0 
L 8.703125 0 
L 25 17.59375 
L 34.296875 0 
L 43.09375 0 
z
" id="CMSSI17-120"/>
      </defs>
      <use transform="scale(0.996264)" xlink:href="#CMSY10-0"/>
      <use transform="translate(77.487468 0)scale(0.996264)" xlink:href="#CMSS17-48"/>
      <use transform="translate(124.331091 0)scale(0.996264)" xlink:href="#CMSS17-46"/>
      <use transform="translate(150.355296 0)scale(0.996264)" xlink:href="#CMSS17-48"/>
      <use transform="translate(197.19892 0)scale(0.996264)" xlink:href="#CMSS17-50"/>
      <use transform="translate(244.042543 0)scale(0.996264)" xlink:href="#CMSS17-55"/>
      <use transform="translate(313.025374 0)scale(0.996264)" xlink:href="#CMSS17-43"/>
      <use transform="translate(408.032515 0)scale(0.996264)" xlink:href="#CMSS17-50"/>
      <use transform="translate(454.876139 0)scale(0.996264)" xlink:href="#CMSS17-46"/>
      <use transform="translate(480.900344 0)scale(0.996264)" xlink:href="#CMSS17-54"/>
      <use transform="translate(527.743967 0)scale(0.996264)" xlink:href="#CMSSI17-120"/>
      <use transform="translate(601.739206 0)scale(0.996264)" xlink:href="#CMSS17-43"/>
      <use transform="translate(696.746347 0)scale(0.996264)" xlink:href="#CMSY10-0"/>
      <use transform="translate(774.233815 0)scale(0.996264)" xlink:href="#CMSS17-48"/>
      <use transform="translate(821.077438 0)scale(0.996264)" xlink:href="#CMSS17-46"/>
      <use transform="translate(847.101643 0)scale(0.996264)" xlink:href="#CMSS17-48"/>
      <use transform="translate(893.945267 0)scale(0.996264)" xlink:href="#CMSS17-48"/>
      <use transform="translate(940.78889 0)scale(0.996264)" xlink:href="#CMSS17-48"/>
      <use transform="translate(987.632514 0)scale(0.996264)" xlink:href="#CMSS17-55"/>
      <use transform="translate(1034.476137 0)scale(0.996264)" xlink:href="#CMSS17-55"/>
      <use transform="translate(1081.319761 0)scale(0.996264)" xlink:href="#CMSSI17-120"/>
      <use transform="translate(1133.175792 36.153639)scale(0.697382)" xlink:href="#CMSS17-50"/>
     </g>
    </g>
    <g id="LineCollection_4">
     <path d="M 173.551655 140.715171 
L 173.551655 130.715171 
" style="fill:none;stroke:#8dd3c7;"/>
    </g>
    <g id="line2d_29">
     <g>
      <use style="fill:#8dd3c7;stroke:#8dd3c7;" x="173.551655" xlink:href="#mc887c11520" y="140.715171"/>
     </g>
    </g>
    <g id="line2d_30">
     <g>
      <use style="fill:#8dd3c7;stroke:#8dd3c7;" x="173.551655" xlink:href="#mc887c11520" y="130.715171"/>
     </g>
    </g>
    <g id="line2d_31"/>
    <g id="line2d_32">
     <g>
      <use style="fill:#8dd3c7;stroke:#8dd3c7;" x="173.551655" xlink:href="#m9f370c9581" y="135.715171"/>
     </g>
    </g>
    <g id="text_21">
     <!-- $\beta=2.1$ -->
     <g style="fill:#ffffff;" transform="translate(191.551655 139.215171)scale(0.1 -0.1)">
      <defs>
       <path d="M 56.59375 58.421875 
C 56.59375 64.546875 51.5 71 42.40625 71 
C 29.5 71 21.296875 54.84375 18.703125 44.21875 
L 2.90625 -18 
C 2.703125 -18.8125 3.296875 -19 3.796875 -19 
C 4.5 -19 5 -18.90625 5.09375 -18.40625 
L 12.09375 9.25 
C 13.09375 3.609375 18.59375 -1 24.5 -1 
C 38.796875 -1 52.296875 10.265625 52.296875 25.28125 
C 52.296875 29.109375 51.40625 32.9375 49.296875 36.15625 
C 48.09375 38.078125 46.59375 39.484375 45 40.609375 
C 52.203125 44.109375 56.59375 50.34375 56.59375 58.421875 
z
M 39.203125 40.703125 
C 37.59375 40.171875 36 40 34.09375 40 
C 32.703125 40 31.40625 39.890625 29.59375 40.4375 
C 30.59375 41.046875 32.09375 41.234375 34.203125 41.234375 
C 36 41.234375 37.796875 41.046875 39.203125 40.703125 
z
M 51.40625 59.34375 
C 51.40625 53.71875 48.703125 45.546875 42.203125 41.9375 
C 40.296875 42.546875 37.703125 43 35.5 43 
C 33.40625 43 27.40625 43.203125 27.40625 40.34375 
C 27.40625 37.671875 32.90625 37.96875 34.59375 37.96875 
C 37.203125 37.96875 39.5 38.578125 41.90625 39.28125 
C 45.09375 36.671875 46.5 33.234375 46.5 28.203125 
C 46.5 22.359375 44.90625 17.625 43 13.28125 
C 39.703125 5.828125 31.90625 1 25 1 
C 17.703125 1 13.90625 6.84375 13.90625 13.6875 
C 13.90625 14.59375 13.90625 15.90625 14.296875 17.421875 
L 20.796875 43.5 
C 24.09375 56.890625 32.5 68.953125 42.203125 68.953125 
C 49.40625 68.953125 51.40625 63.84375 51.40625 59.34375 
z
" id="CMMI12-12"/>
      </defs>
      <use transform="scale(0.996264)" xlink:href="#CMMI12-12"/>
      <use transform="translate(88.268024 0)scale(0.996264)" xlink:href="#CMSS17-61"/>
      <use transform="translate(188.809968 0)scale(0.996264)" xlink:href="#CMSS17-50"/>
      <use transform="translate(235.653592 0)scale(0.996264)" xlink:href="#CMSS17-46"/>
      <use transform="translate(261.677796 0)scale(0.996264)" xlink:href="#CMSS17-49"/>
     </g>
    </g>
    <g id="LineCollection_5">
     <path d="M 173.551655 156.605796 
L 173.551655 146.605796 
" style="fill:none;stroke:#feffb3;"/>
    </g>
    <g id="line2d_33">
     <g>
      <use style="fill:#feffb3;stroke:#feffb3;" x="173.551655" xlink:href="#m09058fa55a" y="156.605796"/>
     </g>
    </g>
    <g id="line2d_34">
     <g>
      <use style="fill:#feffb3;stroke:#feffb3;" x="173.551655" xlink:href="#m09058fa55a" y="146.605796"/>
     </g>
    </g>
    <g id="line2d_35"/>
    <g id="line2d_36">
     <g>
      <use style="fill:#feffb3;stroke:#feffb3;" x="173.551655" xlink:href="#m0284644fc8" y="151.605796"/>
     </g>
    </g>
    <g id="text_22">
     <!-- $\beta=2.15$ -->
     <g style="fill:#ffffff;" transform="translate(191.551655 155.105796)scale(0.1 -0.1)">
      <use transform="scale(0.996264)" xlink:href="#CMMI12-12"/>
      <use transform="translate(88.268024 0)scale(0.996264)" xlink:href="#CMSS17-61"/>
      <use transform="translate(188.809968 0)scale(0.996264)" xlink:href="#CMSS17-50"/>
      <use transform="translate(235.653592 0)scale(0.996264)" xlink:href="#CMSS17-46"/>
      <use transform="translate(261.677796 0)scale(0.996264)" xlink:href="#CMSS17-49"/>
      <use transform="translate(308.52142 0)scale(0.996264)" xlink:href="#CMSS17-53"/>
     </g>
    </g>
    <g id="LineCollection_6">
     <path d="M 173.551655 172.496421 
L 173.551655 162.496421 
" style="fill:none;stroke:#bfbbd9;"/>
    </g>
    <g id="line2d_37">
     <g>
      <use style="fill:#bfbbd9;stroke:#bfbbd9;" x="173.551655" xlink:href="#mdf4eedc3e8" y="172.496421"/>
     </g>
    </g>
    <g id="line2d_38">
     <g>
      <use style="fill:#bfbbd9;stroke:#bfbbd9;" x="173.551655" xlink:href="#mdf4eedc3e8" y="162.496421"/>
     </g>
    </g>
    <g id="line2d_39"/>
    <g id="line2d_40">
     <g>
      <use style="fill:#bfbbd9;stroke:#bfbbd9;" x="173.551655" xlink:href="#md18a7c540d" y="167.496421"/>
     </g>
    </g>
    <g id="text_23">
     <!-- $\beta=2.2$ -->
     <g style="fill:#ffffff;" transform="translate(191.551655 170.996421)scale(0.1 -0.1)">
      <use transform="scale(0.996264)" xlink:href="#CMMI12-12"/>
      <use transform="translate(88.268024 0)scale(0.996264)" xlink:href="#CMSS17-61"/>
      <use transform="translate(188.809968 0)scale(0.996264)" xlink:href="#CMSS17-50"/>
      <use transform="translate(235.653592 0)scale(0.996264)" xlink:href="#CMSS17-46"/>
      <use transform="translate(261.677796 0)scale(0.996264)" xlink:href="#CMSS17-50"/>
     </g>
    </g>
   </g>
  </g>
 </g>
 <defs>
  <clipPath id="p6ba871e160">
   <rect height="166.167224" width="283.366211" x="39.833789" y="15.766376"/>
  </clipPath>
 </defs>
</svg>
